<?xml version="1.0" encoding="iso-8859-1"?>
<!-- Generator: Adobe Illustrator 19.0.0, SVG Export Plug-In . SVG Version: 6.00 Build 0)  -->
<svg version="1.1" id="Capa_1" xmlns="http://www.w3.org/2000/svg" xmlns:xlink="http://www.w3.org/1999/xlink" x="0px" y="0px"
	 viewBox="0 0 512 512" style="enable-background:new 0 0 512 512;" xml:space="preserve">
<g>
	<path style="fill:#676775;" d="M181.499,498.307v-33.91h59v33.91c0,3.697-2.997,6.693-6.693,6.693h-45.613
		C184.496,505,181.499,502.003,181.499,498.307z"/>
	<path style="fill:#676775;" d="M389,496.991v-34.526h59v34.526c0,4.423-3.586,8.009-8.009,8.009h-42.983
		C392.586,505,389,501.414,389,496.991z"/>
</g>
<g>
	<rect x="389" y="462.47" style="fill:#4C4C59;" width="59" height="23.534"/>
	<rect x="181.499" y="464.4" style="fill:#4C4C59;" width="59" height="21.603"/>
</g>
<rect x="161.449" y="340.24" style="fill:#FF3F62;" width="305.57" height="113.51"/>
<g>
	<rect x="161.449" y="421.76" style="fill:#D61841;" width="305.57" height="32"/>
	<rect x="161.449" y="340.24" style="fill:#D61841;" width="37.75" height="113.51"/>
</g>
<path style="fill:#FF9750;" d="M164.499,476c-9.649,0-17.5-7.851-17.5-17.5s7.851-17.5,17.5-17.5H465c9.649,0,17.5,7.851,17.5,17.5
	S474.648,476,465,476H164.499z"/>
<path style="fill:#676775;" d="M187.499,334v-30.449c0-8.023,6.528-14.551,14.551-14.551h135.898
	c8.023,0,14.551,6.528,14.551,14.551V334H187.499z"/>
<path style="fill:#4C4C59;" d="M246.283,289h-44.232c-8.023,0-14.551,6.528-14.551,14.551V334h44.232v-30.449
	C231.731,295.528,238.259,289,246.283,289z"/>
<path style="fill:#FFD278;" d="M409.5,222v-78.5c0-15.164-12.337-27.5-27.5-27.5H280.01V77H382c36.668,0,66.5,29.832,66.5,66.5V222
	H409.5z"/>
<g>
	<path style="fill:#FFBF4D;" d="M386.105,98.774h-64.39c-2.458,0-4.451-1.993-4.451-4.451V79.337c0-0.788-0.041-1.565-0.104-2.337
		H280.01v21.774V116h37.255H382c15.188,0,27.5,12.312,27.5,27.5V222h19.49v-80.342C428.99,117.974,409.789,98.774,386.105,98.774z"
		/>
	<polygon style="fill:#FFBF4D;" points="270.138,238 269.544,214 405.497,214 405.497,238 	"/>
</g>
<path style="fill:#A3A2A8;" d="M268,253c-14.612,0-26.5-11.888-26.5-26.5S253.387,200,268,200c14.612,0,26.5,11.888,26.5,26.5
	S282.612,253,268,253z"/>
<path style="fill:#929296;" d="M264.838,217.296c0-6.516,2.368-12.486,6.283-17.106c-1.025-0.121-2.065-0.19-3.122-0.19
	c-14.612,0-26.5,11.888-26.5,26.5S253.387,253,268,253c8.096,0,15.352-3.654,20.217-9.394
	C275.07,242.055,264.838,230.852,264.838,217.296z"/>
<path style="fill:#E0E0E2;" d="M382.5,332V216.366c0-9.024,7.342-16.366,16.366-16.366h52.268c9.024,0,16.366,7.342,16.366,16.366
	V332H382.5z"/>
<path style="fill:#C6C5CA;" d="M424.454,200h-25.588c-9.024,0-16.366,7.342-16.366,16.366V332h25.588V216.366
	C408.088,207.342,415.43,200,424.454,200z"/>
<path style="fill:#FF9750;" d="M164.499,354c-9.649,0-17.5-7.851-17.5-17.5s7.851-17.5,17.5-17.5H465c9.649,0,17.5,7.851,17.5,17.5
	S474.648,354,465,354H164.499z"/>
<g>
	<path style="fill:#F97923;" d="M184.749,458.5c0-9.649,7.851-17.5,17.5-17.5h-37.75c-9.649,0-17.5,7.851-17.5,17.5
		s7.851,17.5,17.5,17.5h37.75C192.6,476,184.749,468.149,184.749,458.5z"/>
	<path style="fill:#F97923;" d="M184.749,336.5c0-9.649,7.851-17.5,17.5-17.5h-37.75c-9.649,0-17.5,7.851-17.5,17.5
		s7.851,17.5,17.5,17.5h37.75C192.6,354,184.749,346.149,184.749,336.5z"/>
</g>
<path style="fill:#676775;" d="M45.999,447c-9.098,0-16.5-7.402-16.5-16.5s7.402-16.5,16.5-16.5h9c9.098,0,16.5,7.402,16.5,16.5
	s-7.402,16.5-16.5,16.5H45.999z"/>
<path style="fill:#4C4C59;" d="M54.999,429.568h-9c-5.896,0-11.066-3.119-13.984-7.784c-1.584,2.533-2.516,5.514-2.516,8.716
	c0,9.098,7.402,16.5,16.5,16.5h9c9.098,0,16.5-7.402,16.5-16.5c0-3.202-0.931-6.183-2.516-8.716
	C66.065,426.449,60.895,429.568,54.999,429.568z"/>
<path style="fill:#FFD278;" d="M269.51,50.837c-50.365,0-99.677-21.116-118.541-30.194l-11.469-5.52h-5.431V185.55h5.431
	l11.469-5.52c18.863-9.078,68.175-30.193,118.541-30.193c15.715,0,28.5-12.785,28.5-28.5v-42
	C298.01,63.622,285.224,50.837,269.51,50.837z"/>
<path style="fill:#FFBF4D;" d="M269.51,129.415c-37.444,0-74.3,11.669-98.5,21.388c-4.216,1.693-8.802-1.408-8.802-5.952V25.773
	c-4.439-1.926-8.23-3.682-11.239-5.13l-11.469-5.52h-5.431v150.006v20.422h5.431l11.469-5.52c0.511-0.246,1.055-0.505,1.61-0.768
	c0.151-0.071,0.302-0.143,0.455-0.215c0.542-0.255,1.1-0.517,1.68-0.786c0.181-0.084,0.372-0.171,0.557-0.257
	c0.419-0.194,0.85-0.391,1.288-0.591c0.265-0.121,0.528-0.241,0.799-0.364c0.558-0.253,1.132-0.511,1.719-0.772
	c0.314-0.14,0.637-0.283,0.958-0.425c0.387-0.171,0.781-0.344,1.179-0.519c0.33-0.144,0.656-0.288,0.993-0.434l0,0
	c23.359-10.135,64.859-25.023,107.132-25.063c15.768-0.015,28.669-12.732,28.669-28.5v-20.422
	C298.01,116.63,285.224,129.415,269.51,129.415z"/>
<path style="fill:#FF9750;" d="M125.999,194c-7.995,0-14.5-6.505-14.5-14.5v-158c0-7.995,6.505-14.5,14.5-14.5s14.5,6.505,14.5,14.5
	v158C140.499,187.495,133.994,194,125.999,194z"/>
<path style="fill:#F97923;" d="M125.999,158.635c-7.995,0-14.5-6.505-14.5-14.5V179.5c0,7.995,6.505,14.5,14.5,14.5
	s14.5-6.505,14.5-14.5v-35.365C140.499,152.13,133.994,158.635,125.999,158.635z"/>
<path d="M474.018,435.727v-76.454c9.059-3.6,15.482-12.448,15.482-22.773c0-10.142-6.195-18.865-15-22.583v-97.551
	c0-11.392-8.197-20.9-19-22.951V143.5c0-40.528-32.972-73.5-73.5-73.5h-77.801C300.032,55.025,286.284,44,270,44
	C206.897,44,144.457,9.401,143.676,8.963c-0.001-0.001-0.001-0.001-0.002-0.002l-0.105,0.187C139.673,3.625,133.257,0,125.999,0
	c-11.855,0-21.5,9.645-21.5,21.5v158c0,11.855,9.645,21.5,21.5,21.5c7.258,0,13.674-3.625,17.569-9.148l0.105,0.187
	C144.298,191.688,206.816,157,270,157c19.072,0,34.672-15.119,35.462-34H382c11.304,0,20.5,9.196,20.5,20.5V193h-3.634
	c-9.554,0-17.783,5.767-21.4,14h-82.252c-6.086-8.469-16.013-14-27.214-14c-18.472,0-33.5,15.028-33.5,33.5
	c0,15.893,11.128,29.227,26,32.643v8.357c0,4.142,3.358,7.5,7.5,7.5c4.143,0,7.5-3.358,7.5-7.5v-8.357
	c8.476-1.947,15.734-7.112,20.41-14.143h79.59v67h-16v-8.449c0-11.883-9.668-21.551-21.551-21.551H202.05
	c-11.883,0-21.551,9.668-21.551,21.551V312h-16c-13.509,0-24.5,10.991-24.5,24.5c0,9.927,5.939,18.488,14.447,22.333v13.584
	L112.073,372c-0.025,0-0.049,0-0.074,0c-1.975,0-3.872,0.779-5.277,2.171c-1.422,1.408-2.223,3.327-2.223,5.329v42.681
	l-27.286,0.666C74.03,413.636,65.278,407,54.999,407h-9c-12.958,0-23.5,10.542-23.5,23.5s10.542,23.5,23.5,23.5h9
	c10.392,0,19.224-6.783,22.317-16.152l34.866-0.85c4.069-0.099,7.317-3.427,7.317-7.498v-42.426l34.947,0.344v48.749
	c-8.508,3.845-14.447,12.406-14.447,22.333c0,13.509,10.991,24.5,24.5,24.5h10v17.322c0,6.439,5.239,11.678,11.678,11.678h49.644
	c6.439,0,11.678-5.239,11.678-11.678V483H382v17.322c0,6.439,5.238,11.678,11.678,11.678h49.645c6.439,0,11.678-5.239,11.678-11.678
	V483h10c13.51,0,24.5-10.991,24.5-24.5C489.5,448.174,483.076,439.327,474.018,435.727z M132.499,179.5c0,3.584-2.916,6.5-6.5,6.5
	s-6.5-2.916-6.5-6.5v-158c0-3.584,2.916-6.5,6.5-6.5s6.5,2.916,6.5,6.5V179.5z M290.5,121.5c0,11.304-9.196,20.5-20.5,20.5
	c-51.475,0-100.96,20.808-122.5,31.221V27.779C169.039,38.192,218.524,59,270,59c11.304,0,20.5,9.196,20.5,20.5V121.5z M268,245
	c-10.201,0-18.5-8.299-18.5-18.5S257.799,208,268,208s18.5,8.299,18.5,18.5S278.201,245,268,245z M375,230h-73.683
	c0.12-1.151,0.183-2.318,0.183-3.5c0-1.527-0.112-3.027-0.311-4.5H375V230z M54.999,439h-9c-4.687,0-8.5-3.813-8.5-8.5
	s3.813-8.5,8.5-8.5h9c4.687,0,8.5,3.813,8.5,8.5S59.686,439,54.999,439z M328.058,108H305.5V85h22.559V108z M360.5,108h-17.441V85
	H360.5V108z M382,108h-6.5V85h6.5c32.257,0,58.5,26.243,58.5,58.5V193h-23v-49.5C417.5,123.925,401.575,108,382,108z M390.5,216.366
	c0-4.613,3.753-8.366,8.366-8.366h52.268c4.613,0,8.366,3.753,8.366,8.366V312h-69V216.366z M195.499,303.551
	c0-3.612,2.939-6.551,6.551-6.551h135.898c3.612,0,6.551,2.939,6.551,6.551V312h-149L195.499,303.551L195.499,303.551z M232.499,497
	h-43v-14h43V497z M440,497h-43v-14h43V497z M465,468H164.835c-5.055,0-9.476-3.806-9.814-8.849
	c-0.37-5.531,4.025-10.151,9.478-10.151h178.921c4.261,0,7.981-3.215,8.257-7.467c0.302-4.659-3.388-8.533-7.983-8.533H169.447v-72
	h52.393c4.072,0,7.376-3.294,7.389-7.365c0-0.074,0-0.148,0.001-0.222c0.013-4.09-3.299-7.413-7.389-7.413h-57.005
	c-5.055,0-9.476-3.806-9.814-8.849c-0.37-5.531,4.025-10.151,9.478-10.151h300.165c5.055,0,9.476,3.806,9.814,8.849
	C474.849,341.381,470.453,346,465,346H265.24c-4.09,0-7.402,3.323-7.389,7.413c0,0.074,0,0.148,0.001,0.222
	c0.013,4.072,3.318,7.365,7.389,7.365h193.776v72H388.63c-4.261,0-7.981,3.215-8.257,7.467c-0.302,4.659,3.388,8.533,7.983,8.533
	h76.309c5.055,0,9.476,3.806,9.814,8.849C474.849,463.381,470.453,468,465,468z"/>
<g>
</g>
<g>
</g>
<g>
</g>
<g>
</g>
<g>
</g>
<g>
</g>
<g>
</g>
<g>
</g>
<g>
</g>
<g>
</g>
<g>
</g>
<g>
</g>
<g>
</g>
<g>
</g>
<g>
</g>
</svg>
