<svg version="1" xmlns="http://www.w3.org/2000/svg" width="346.667" height="346.667" viewBox="0 0 260.000000 260.000000"><path d="M110.7 23.5c-41.5 7.9-74.4 38.4-85.4 79.3-2.4 8.7-2.7 11.5-2.7 27.2 0 15.8.3 18.5 2.7 27.3 2.7 10.1 11 29.2 12.4 28.4.5-.2 12-7.1 25.6-15.3 23.1-13.8 25-14.7 26-12.8 1.3 2.5 10.6 11.8 13.1 13.1 1.9 1 1 2.9-12.8 26-8.2 13.6-15.1 25.1-15.3 25.5-.7 1.4 18.4 9.9 28.3 12.5 8.9 2.4 11.6 2.7 27.4 2.7 15.7 0 18.5-.3 27.1-2.6 38-10.3 67.4-39.7 77.7-77.7 2.3-8.6 2.6-11.4 2.6-27.1 0-15.8-.3-18.5-2.7-27.3-1.4-5.4-4.6-14.1-7.1-19.3-4.5-9.5-4.6-9.6-6.8-8.2-1.3.8-12.8 7.7-25.7 15.3-21.6 12.8-23.4 13.7-24.4 11.9-1.3-2.5-10.6-11.8-13.1-13.1-1.9-1-1-2.9 12.8-26 8.2-13.6 15.1-25.1 15.3-25.6.8-1.4-18.4-9.7-28.4-12.3-12.5-3.3-34.5-4.2-46.6-1.9zm26.5 69.6c15.5 3.3 26.7 14.8 29.8 30.7 3 15.2-5.5 32.4-19.7 39.5C124.4 175 98 161.8 93 136.2c-3.7-18.8 9-38 28.5-42.8 6.5-1.6 9.2-1.6 15.7-.3z"/><path d="M125.5 119.9c-4 1.8-6 5.1-6 10.2 0 4 .5 5.4 2.8 7.6 2.3 2.3 3.6 2.8 7.7 2.8s5.4-.5 7.7-2.8 2.8-3.6 2.8-7.7c0-4-.5-5.5-2.6-7.6-2.8-2.8-8.9-4-12.4-2.5z"/></svg>