<?xml version="1.0" standalone="no"?>
<!DOCTYPE svg PUBLIC "-//W3C//DTD SVG 20010904//EN"
 "http://www.w3.org/TR/2001/REC-SVG-20010904/DTD/svg10.dtd">
<svg version="1.0" xmlns="http://www.w3.org/2000/svg"
 width="700.000000pt" height="700.000000pt" viewBox="0 0 700.000000 700.000000"
 preserveAspectRatio="xMidYMid meet">
<metadata>
Created by potrace 1.11, written by Peter Selinger 2001-2013
</metadata>
<g transform="translate(0.000000,700.000000) scale(0.100000,-0.100000)"
fill="#000000" stroke="none">
<path d="M1633 6986 c-54 -17 -113 -60 -146 -107 -60 -83 -57 -19 -57 -1258
l0 -1136 29 -61 c71 -150 245 -213 392 -140 30 15 68 42 84 60 33 36 104 74
297 160 296 130 669 251 908 292 14 2 46 9 71 14 25 5 75 12 110 16 35 3 67 8
70 10 6 4 127 12 284 19 118 5 189 24 267 71 109 66 206 203 223 314 3 25 9
53 11 62 5 16 46 17 562 15 l557 -2 51 -27 c79 -42 135 -113 150 -193 5 -30 9
-574 5 -706 -1 -25 -4 -27 -68 -32 -108 -8 -189 -56 -249 -147 l-27 -40 -557
0 -558 0 -54 53 c-100 99 -217 143 -358 134 -151 -9 -284 -94 -365 -231 -15
-25 -28 -51 -29 -58 -2 -7 -6 -20 -10 -29 -14 -31 -21 -145 -14 -204 11 -83
65 -188 130 -253 49 -49 171 -122 204 -122 9 0 14 -13 15 -37 1 -125 21 -167
83 -179 72 -13 118 34 122 124 1 32 3 64 3 74 1 10 18 22 47 32 73 25 127 61
182 121 l51 55 540 0 541 0 1 -22 c3 -68 4 -865 1 -879 -3 -13 -21 -15 -110
-14 l-106 1 -2 89 c-1 64 -8 103 -22 136 -40 93 -123 160 -217 176 -27 5 -480
8 -1005 8 -1023 -1 -990 0 -1072 -52 -49 -30 -104 -106 -118 -162 -6 -24 -11
-78 -11 -120 l0 -77 -127 1 c-81 1 -145 -4 -177 -13 -219 -62 -316 -301 -200
-497 24 -42 115 -125 136 -125 5 0 9 -43 9 -96 l0 -95 -287 1 c-159 1 -298 1
-311 1 -13 -1 -37 -14 -53 -30 l-29 -29 0 -311 0 -311 -22 -1 c-13 0 -97 -2
-188 -5 l-165 -4 -20 42 c-36 76 -114 138 -204 161 -72 18 -251 14 -310 -7
-80 -29 -142 -85 -182 -165 -34 -66 -35 -205 -1 -273 32 -65 89 -120 158 -154
56 -28 65 -29 194 -29 124 1 140 3 190 26 64 30 126 89 155 145 11 21 21 41
22 43 1 2 62 5 135 7 394 11 383 10 422 53 17 19 19 42 20 328 l1 308 237 0
238 0 0 -335 0 -335 -36 -20 c-82 -44 -154 -162 -159 -262 -4 -94 26 -179 87
-244 76 -81 150 -110 292 -112 l91 -1 1 -143 c1 -133 2 -144 25 -177 13 -19
40 -44 60 -55 35 -20 50 -21 421 -18 l384 2 37 25 c58 40 70 79 71 232 l1 133
919 0 919 0 0 -130 c-1 -150 12 -196 68 -236 l34 -24 397 0 c385 0 397 1 424
21 63 47 69 63 74 222 l5 147 75 0 c176 0 281 55 353 183 29 53 32 64 32 152
0 81 -4 102 -24 144 -28 56 -99 129 -148 153 l-33 15 0 522 0 522 41 23 c56
32 112 91 140 148 20 40 24 64 24 143 0 81 -4 102 -24 140 -34 64 -66 100
-125 140 l-51 35 0 700 0 700 -26 55 c-14 30 -42 72 -62 92 -36 37 -123 88
-152 88 -11 0 -15 11 -15 38 -1 20 -1 193 -2 384 -1 328 -4 376 -33 521 -3 15
-16 56 -29 91 -136 361 -462 614 -844 653 -37 3 -313 7 -613 7 l-546 0 -37 77
c-43 91 -120 172 -204 217 -93 49 -122 54 -379 67 -67 3 -133 8 -145 10 -49 8
-105 16 -144 21 -23 3 -51 7 -63 9 -12 3 -31 7 -43 10 -188 39 -364 86 -513
137 -290 98 -656 264 -701 317 -59 70 -205 107 -301 77z"/>
</g>
</svg>
